<mxfile host="app.diagrams.net" agent="Mozilla/5.0 (Macintosh; Intel Mac OS X 10_15_7) AppleWebKit/605.1.15 (KHTML, like Gecko) Version/18.5 Safari/605.1.15" version="27.1.6">
  <diagram name="Page-1" id="p1TO95o0_c6SoPnXhEOZ">
    <mxGraphModel dx="1273" dy="798" grid="1" gridSize="10" guides="1" tooltips="1" connect="1" arrows="1" fold="1" page="1" pageScale="1" pageWidth="827" pageHeight="1169" math="0" shadow="0">
      <root>
        <mxCell id="0" />
        <mxCell id="1" parent="0" />
        <mxCell id="5-OogWlqRJuveZldEWBG-15" style="rounded=0;orthogonalLoop=1;jettySize=auto;html=1;entryX=0.5;entryY=1;entryDx=0;entryDy=0;endArrow=open;endFill=0;" edge="1" parent="1" source="5-OogWlqRJuveZldEWBG-5" target="5-OogWlqRJuveZldEWBG-13">
          <mxGeometry relative="1" as="geometry" />
        </mxCell>
        <mxCell id="5-OogWlqRJuveZldEWBG-5" value="AppIHM" style="swimlane;fontStyle=1;align=center;verticalAlign=top;childLayout=stackLayout;horizontal=1;startSize=26;horizontalStack=0;resizeParent=1;resizeParentMax=0;resizeLast=0;collapsible=1;marginBottom=0;whiteSpace=wrap;html=1;" vertex="1" parent="1">
          <mxGeometry x="110" y="610" width="270" height="210" as="geometry" />
        </mxCell>
        <mxCell id="5-OogWlqRJuveZldEWBG-6" value="- primaryStage: Stage" style="text;strokeColor=none;fillColor=none;align=left;verticalAlign=top;spacingLeft=4;spacingRight=4;overflow=hidden;rotatable=0;points=[[0,0.5],[1,0.5]];portConstraint=eastwest;whiteSpace=wrap;html=1;" vertex="1" parent="5-OogWlqRJuveZldEWBG-5">
          <mxGeometry y="26" width="270" height="26" as="geometry" />
        </mxCell>
        <mxCell id="5-OogWlqRJuveZldEWBG-7" value="" style="line;strokeWidth=1;fillColor=none;align=left;verticalAlign=middle;spacingTop=-1;spacingLeft=3;spacingRight=3;rotatable=0;labelPosition=right;points=[];portConstraint=eastwest;strokeColor=inherit;" vertex="1" parent="5-OogWlqRJuveZldEWBG-5">
          <mxGeometry y="52" width="270" height="8" as="geometry" />
        </mxCell>
        <mxCell id="5-OogWlqRJuveZldEWBG-8" value="&lt;div&gt;+ init(): void&lt;/div&gt;&lt;div&gt;+ getPrimaryStage(): Stage&lt;/div&gt;&lt;div&gt;+ setPrimaryStage(primaryStage: Stage): void&lt;/div&gt;&lt;div&gt;+ showConnexion(): void&lt;/div&gt;&lt;div&gt;+ showCustomer(): void&lt;/div&gt;&lt;div&gt;+ showSeller(): void&lt;/div&gt;&lt;div&gt;+ modeAdministrateur(): void&lt;/div&gt;&lt;div&gt;+ start(stage: Stage): void&lt;/div&gt;&lt;div&gt;+ main(args: String[]): void&lt;/div&gt;" style="text;strokeColor=none;fillColor=none;align=left;verticalAlign=top;spacingLeft=4;spacingRight=4;overflow=hidden;rotatable=0;points=[[0,0.5],[1,0.5]];portConstraint=eastwest;whiteSpace=wrap;html=1;" vertex="1" parent="5-OogWlqRJuveZldEWBG-5">
          <mxGeometry y="60" width="270" height="150" as="geometry" />
        </mxCell>
        <mxCell id="5-OogWlqRJuveZldEWBG-13" value="&lt;span style=&quot;font-weight: 700;&quot;&gt;ChaineLibrairie (ModÃ¨le)&lt;/span&gt;" style="html=1;whiteSpace=wrap;" vertex="1" parent="1">
          <mxGeometry x="130" y="270" width="199" height="30" as="geometry" />
        </mxCell>
        <mxCell id="5-OogWlqRJuveZldEWBG-21" style="edgeStyle=none;shape=connector;rounded=0;orthogonalLoop=1;jettySize=auto;html=1;entryX=1;entryY=0.5;entryDx=0;entryDy=0;strokeColor=default;align=center;verticalAlign=middle;fontFamily=Helvetica;fontSize=11;fontColor=default;labelBackgroundColor=default;endArrow=open;endFill=0;exitX=0;exitY=0.5;exitDx=0;exitDy=0;" edge="1" parent="1" source="5-OogWlqRJuveZldEWBG-19" target="5-OogWlqRJuveZldEWBG-6">
          <mxGeometry relative="1" as="geometry" />
        </mxCell>
        <mxCell id="5-OogWlqRJuveZldEWBG-22" style="edgeStyle=none;shape=connector;rounded=0;orthogonalLoop=1;jettySize=auto;html=1;entryX=1;entryY=1;entryDx=0;entryDy=0;strokeColor=default;align=center;verticalAlign=middle;fontFamily=Helvetica;fontSize=11;fontColor=default;labelBackgroundColor=default;endArrow=open;endFill=0;" edge="1" parent="1" source="5-OogWlqRJuveZldEWBG-16" target="5-OogWlqRJuveZldEWBG-13">
          <mxGeometry relative="1" as="geometry" />
        </mxCell>
        <mxCell id="5-OogWlqRJuveZldEWBG-24" style="edgeStyle=none;shape=connector;rounded=0;orthogonalLoop=1;jettySize=auto;html=1;entryX=0.75;entryY=1;entryDx=0;entryDy=0;strokeColor=default;align=center;verticalAlign=middle;fontFamily=Helvetica;fontSize=11;fontColor=default;labelBackgroundColor=default;endArrow=block;endFill=0;" edge="1" parent="1" source="5-OogWlqRJuveZldEWBG-16" target="5-OogWlqRJuveZldEWBG-23">
          <mxGeometry relative="1" as="geometry" />
        </mxCell>
        <mxCell id="5-OogWlqRJuveZldEWBG-68" style="edgeStyle=none;shape=connector;rounded=0;orthogonalLoop=1;jettySize=auto;html=1;entryX=0;entryY=0.5;entryDx=0;entryDy=0;dashed=1;strokeColor=default;align=center;verticalAlign=middle;fontFamily=Helvetica;fontSize=11;fontColor=default;labelBackgroundColor=default;endArrow=open;endFill=0;" edge="1" parent="1" source="5-OogWlqRJuveZldEWBG-16" target="5-OogWlqRJuveZldEWBG-64">
          <mxGeometry relative="1" as="geometry" />
        </mxCell>
        <mxCell id="5-OogWlqRJuveZldEWBG-69" style="edgeStyle=none;shape=connector;rounded=0;orthogonalLoop=1;jettySize=auto;html=1;entryX=0;entryY=0.5;entryDx=0;entryDy=0;dashed=1;strokeColor=default;align=center;verticalAlign=middle;fontFamily=Helvetica;fontSize=11;fontColor=default;labelBackgroundColor=default;endArrow=open;endFill=0;" edge="1" parent="1" source="5-OogWlqRJuveZldEWBG-16" target="5-OogWlqRJuveZldEWBG-61">
          <mxGeometry relative="1" as="geometry" />
        </mxCell>
        <mxCell id="5-OogWlqRJuveZldEWBG-70" style="edgeStyle=none;shape=connector;rounded=0;orthogonalLoop=1;jettySize=auto;html=1;entryX=0;entryY=0.5;entryDx=0;entryDy=0;dashed=1;strokeColor=default;align=center;verticalAlign=middle;fontFamily=Helvetica;fontSize=11;fontColor=default;labelBackgroundColor=default;endArrow=open;endFill=0;" edge="1" parent="1" source="5-OogWlqRJuveZldEWBG-16" target="5-OogWlqRJuveZldEWBG-63">
          <mxGeometry relative="1" as="geometry" />
        </mxCell>
        <mxCell id="5-OogWlqRJuveZldEWBG-71" style="edgeStyle=none;shape=connector;rounded=0;orthogonalLoop=1;jettySize=auto;html=1;entryX=0;entryY=0.5;entryDx=0;entryDy=0;dashed=1;strokeColor=default;align=center;verticalAlign=middle;fontFamily=Helvetica;fontSize=11;fontColor=default;labelBackgroundColor=default;endArrow=open;endFill=0;" edge="1" parent="1" source="5-OogWlqRJuveZldEWBG-16" target="5-OogWlqRJuveZldEWBG-62">
          <mxGeometry relative="1" as="geometry" />
        </mxCell>
        <mxCell id="5-OogWlqRJuveZldEWBG-72" style="edgeStyle=none;shape=connector;rounded=0;orthogonalLoop=1;jettySize=auto;html=1;entryX=0;entryY=0.5;entryDx=0;entryDy=0;dashed=1;strokeColor=default;align=center;verticalAlign=middle;fontFamily=Helvetica;fontSize=11;fontColor=default;labelBackgroundColor=default;endArrow=open;endFill=0;" edge="1" parent="1" source="5-OogWlqRJuveZldEWBG-16" target="5-OogWlqRJuveZldEWBG-65">
          <mxGeometry relative="1" as="geometry" />
        </mxCell>
        <mxCell id="5-OogWlqRJuveZldEWBG-73" style="edgeStyle=none;shape=connector;rounded=0;orthogonalLoop=1;jettySize=auto;html=1;entryX=0;entryY=0.5;entryDx=0;entryDy=0;dashed=1;strokeColor=default;align=center;verticalAlign=middle;fontFamily=Helvetica;fontSize=11;fontColor=default;labelBackgroundColor=default;endArrow=open;endFill=0;" edge="1" parent="1" source="5-OogWlqRJuveZldEWBG-16" target="5-OogWlqRJuveZldEWBG-66">
          <mxGeometry relative="1" as="geometry" />
        </mxCell>
        <mxCell id="5-OogWlqRJuveZldEWBG-74" style="edgeStyle=none;shape=connector;rounded=0;orthogonalLoop=1;jettySize=auto;html=1;entryX=0;entryY=0.5;entryDx=0;entryDy=0;dashed=1;strokeColor=default;align=center;verticalAlign=middle;fontFamily=Helvetica;fontSize=11;fontColor=default;labelBackgroundColor=default;endArrow=open;endFill=0;" edge="1" parent="1" source="5-OogWlqRJuveZldEWBG-16" target="5-OogWlqRJuveZldEWBG-67">
          <mxGeometry relative="1" as="geometry" />
        </mxCell>
        <mxCell id="5-OogWlqRJuveZldEWBG-16" value="AdminScene" style="swimlane;fontStyle=1;align=center;verticalAlign=top;childLayout=stackLayout;horizontal=1;startSize=26;horizontalStack=0;resizeParent=1;resizeParentMax=0;resizeLast=0;collapsible=1;marginBottom=0;whiteSpace=wrap;html=1;fontFamily=Helvetica;fontSize=11;fontColor=default;labelBackgroundColor=default;" vertex="1" parent="1">
          <mxGeometry x="720" y="190" width="280" height="230" as="geometry" />
        </mxCell>
        <mxCell id="5-OogWlqRJuveZldEWBG-17" value="- scene: Scene" style="text;strokeColor=none;fillColor=none;align=left;verticalAlign=top;spacingLeft=4;spacingRight=4;overflow=hidden;rotatable=0;points=[[0,0.5],[1,0.5]];portConstraint=eastwest;whiteSpace=wrap;html=1;fontFamily=Helvetica;fontSize=11;fontColor=default;labelBackgroundColor=default;" vertex="1" parent="5-OogWlqRJuveZldEWBG-16">
          <mxGeometry y="26" width="280" height="26" as="geometry" />
        </mxCell>
        <mxCell id="5-OogWlqRJuveZldEWBG-18" value="" style="line;strokeWidth=1;fillColor=none;align=left;verticalAlign=middle;spacingTop=-1;spacingLeft=3;spacingRight=3;rotatable=0;labelPosition=right;points=[];portConstraint=eastwest;strokeColor=inherit;fontFamily=Helvetica;fontSize=11;fontColor=default;labelBackgroundColor=default;" vertex="1" parent="5-OogWlqRJuveZldEWBG-16">
          <mxGeometry y="52" width="280" height="8" as="geometry" />
        </mxCell>
        <mxCell id="5-OogWlqRJuveZldEWBG-19" value="&lt;div&gt;+ AdminScene(app: AppIHM, modele: ChaineLibrairie)&lt;/div&gt;&lt;div&gt;+ getHeader(): BorderPane&lt;/div&gt;&lt;div&gt;+ showHome(): void&lt;/div&gt;&lt;div&gt;+ showExportFactures(): void&lt;/div&gt;&lt;div&gt;+ showMagasins(): void&lt;/div&gt;&lt;div&gt;+ showVendeurs(magasin: Magasin): void&lt;/div&gt;&lt;div&gt;+ showStock(listeLivres: List&amp;lt;Livre&amp;gt;, magasin: Magasin): void&lt;/div&gt;&lt;div&gt;+ showDemandeInfoVendeur(magasin: Magasin): void&lt;/div&gt;&lt;div&gt;+ showDemandeInfoMagasin(): void&lt;/div&gt;&lt;div&gt;+ getScene(): Scene&lt;/div&gt;" style="text;strokeColor=none;fillColor=none;align=left;verticalAlign=top;spacingLeft=4;spacingRight=4;overflow=hidden;rotatable=0;points=[[0,0.5],[1,0.5]];portConstraint=eastwest;whiteSpace=wrap;html=1;fontFamily=Helvetica;fontSize=11;fontColor=default;labelBackgroundColor=default;" vertex="1" parent="5-OogWlqRJuveZldEWBG-16">
          <mxGeometry y="60" width="280" height="170" as="geometry" />
        </mxCell>
        <mxCell id="5-OogWlqRJuveZldEWBG-23" value="&lt;font style=&quot;font-size: 15px;&quot;&gt;BorderPane&lt;/font&gt;" style="html=1;whiteSpace=wrap;fontFamily=Helvetica;fontSize=11;fontColor=default;labelBackgroundColor=default;" vertex="1" parent="1">
          <mxGeometry x="350" y="90" width="157" height="30" as="geometry" />
        </mxCell>
        <mxCell id="5-OogWlqRJuveZldEWBG-29" style="edgeStyle=none;shape=connector;rounded=0;orthogonalLoop=1;jettySize=auto;html=1;entryX=1;entryY=0.5;entryDx=0;entryDy=0;strokeColor=default;align=center;verticalAlign=middle;fontFamily=Helvetica;fontSize=11;fontColor=default;labelBackgroundColor=default;endArrow=open;endFill=0;" edge="1" parent="1" source="5-OogWlqRJuveZldEWBG-25" target="5-OogWlqRJuveZldEWBG-6">
          <mxGeometry relative="1" as="geometry" />
        </mxCell>
        <mxCell id="5-OogWlqRJuveZldEWBG-30" style="edgeStyle=none;shape=connector;rounded=0;orthogonalLoop=1;jettySize=auto;html=1;entryX=0.75;entryY=1;entryDx=0;entryDy=0;strokeColor=default;align=center;verticalAlign=middle;fontFamily=Helvetica;fontSize=11;fontColor=default;labelBackgroundColor=default;endArrow=open;endFill=0;exitX=0;exitY=0.5;exitDx=0;exitDy=0;" edge="1" parent="1" source="5-OogWlqRJuveZldEWBG-26" target="5-OogWlqRJuveZldEWBG-13">
          <mxGeometry relative="1" as="geometry" />
        </mxCell>
        <mxCell id="5-OogWlqRJuveZldEWBG-31" style="edgeStyle=none;shape=connector;rounded=0;orthogonalLoop=1;jettySize=auto;html=1;entryX=0.5;entryY=1;entryDx=0;entryDy=0;strokeColor=default;align=center;verticalAlign=middle;fontFamily=Helvetica;fontSize=11;fontColor=default;labelBackgroundColor=default;endArrow=block;endFill=0;" edge="1" parent="1" source="5-OogWlqRJuveZldEWBG-25" target="5-OogWlqRJuveZldEWBG-23">
          <mxGeometry relative="1" as="geometry" />
        </mxCell>
        <mxCell id="5-OogWlqRJuveZldEWBG-58" style="edgeStyle=none;shape=connector;rounded=0;orthogonalLoop=1;jettySize=auto;html=1;entryX=0;entryY=0.5;entryDx=0;entryDy=0;dashed=1;strokeColor=default;align=center;verticalAlign=middle;fontFamily=Helvetica;fontSize=11;fontColor=default;labelBackgroundColor=default;endArrow=open;endFill=0;" edge="1" parent="1" source="5-OogWlqRJuveZldEWBG-25" target="5-OogWlqRJuveZldEWBG-57">
          <mxGeometry relative="1" as="geometry" />
        </mxCell>
        <mxCell id="5-OogWlqRJuveZldEWBG-59" style="edgeStyle=none;shape=connector;rounded=0;orthogonalLoop=1;jettySize=auto;html=1;entryX=0;entryY=0.5;entryDx=0;entryDy=0;dashed=1;strokeColor=default;align=center;verticalAlign=middle;fontFamily=Helvetica;fontSize=11;fontColor=default;labelBackgroundColor=default;endArrow=open;endFill=0;" edge="1" parent="1" source="5-OogWlqRJuveZldEWBG-25" target="5-OogWlqRJuveZldEWBG-55">
          <mxGeometry relative="1" as="geometry" />
        </mxCell>
        <mxCell id="5-OogWlqRJuveZldEWBG-60" style="edgeStyle=none;shape=connector;rounded=0;orthogonalLoop=1;jettySize=auto;html=1;entryX=0;entryY=0.5;entryDx=0;entryDy=0;dashed=1;strokeColor=default;align=center;verticalAlign=middle;fontFamily=Helvetica;fontSize=11;fontColor=default;labelBackgroundColor=default;endArrow=open;endFill=0;" edge="1" parent="1" source="5-OogWlqRJuveZldEWBG-25" target="5-OogWlqRJuveZldEWBG-56">
          <mxGeometry relative="1" as="geometry" />
        </mxCell>
        <mxCell id="5-OogWlqRJuveZldEWBG-25" value="CustomerScene" style="swimlane;fontStyle=1;align=center;verticalAlign=top;childLayout=stackLayout;horizontal=1;startSize=26;horizontalStack=0;resizeParent=1;resizeParentMax=0;resizeLast=0;collapsible=1;marginBottom=0;whiteSpace=wrap;html=1;fontFamily=Helvetica;fontSize=11;fontColor=default;labelBackgroundColor=default;" vertex="1" parent="1">
          <mxGeometry x="720" y="530" width="280" height="268" as="geometry" />
        </mxCell>
        <mxCell id="5-OogWlqRJuveZldEWBG-26" value="- scene: Scene&lt;div&gt;- bookCards: HashMap&amp;lt;Livre, CustomerBookCardComponent&amp;gt;&lt;br&gt;&lt;/div&gt;&lt;div&gt;- header: VBox&lt;br&gt;&lt;/div&gt;" style="text;strokeColor=none;fillColor=none;align=left;verticalAlign=top;spacingLeft=4;spacingRight=4;overflow=hidden;rotatable=0;points=[[0,0.5],[1,0.5]];portConstraint=eastwest;whiteSpace=wrap;html=1;fontFamily=Helvetica;fontSize=11;fontColor=default;labelBackgroundColor=default;" vertex="1" parent="5-OogWlqRJuveZldEWBG-25">
          <mxGeometry y="26" width="280" height="64" as="geometry" />
        </mxCell>
        <mxCell id="5-OogWlqRJuveZldEWBG-27" value="" style="line;strokeWidth=1;fillColor=none;align=left;verticalAlign=middle;spacingTop=-1;spacingLeft=3;spacingRight=3;rotatable=0;labelPosition=right;points=[];portConstraint=eastwest;strokeColor=inherit;fontFamily=Helvetica;fontSize=11;fontColor=default;labelBackgroundColor=default;" vertex="1" parent="5-OogWlqRJuveZldEWBG-25">
          <mxGeometry y="90" width="280" height="8" as="geometry" />
        </mxCell>
        <mxCell id="5-OogWlqRJuveZldEWBG-28" value="&lt;div&gt;+ CustomerScene(app: AppIHM, modele: ChaineLibrairie)&lt;/div&gt;&lt;div&gt;+ getHeader(): VBox&lt;/div&gt;&lt;div&gt;+ showHome(): void&lt;/div&gt;&lt;div&gt;+ reloadHome(): void&lt;/div&gt;&lt;div&gt;+ showPanier(): void&lt;/div&gt;&lt;div&gt;+ showListBooks(titre: String, listeLivres: List&amp;lt;Livre&amp;gt;): void&lt;/div&gt;&lt;div&gt;+ createOrGetCardComponent(livre: Livre): CustomerBookCardComponent&lt;/div&gt;&lt;div&gt;+ getScene(): Scene&lt;/div&gt;" style="text;strokeColor=none;fillColor=none;align=left;verticalAlign=top;spacingLeft=4;spacingRight=4;overflow=hidden;rotatable=0;points=[[0,0.5],[1,0.5]];portConstraint=eastwest;whiteSpace=wrap;html=1;fontFamily=Helvetica;fontSize=11;fontColor=default;labelBackgroundColor=default;" vertex="1" parent="5-OogWlqRJuveZldEWBG-25">
          <mxGeometry y="98" width="280" height="170" as="geometry" />
        </mxCell>
        <mxCell id="5-OogWlqRJuveZldEWBG-36" style="edgeStyle=none;shape=connector;rounded=0;orthogonalLoop=1;jettySize=auto;html=1;entryX=0.75;entryY=1;entryDx=0;entryDy=0;strokeColor=default;align=center;verticalAlign=middle;fontFamily=Helvetica;fontSize=11;fontColor=default;labelBackgroundColor=default;endArrow=open;endFill=0;" edge="1" parent="1" source="5-OogWlqRJuveZldEWBG-32" target="5-OogWlqRJuveZldEWBG-13">
          <mxGeometry relative="1" as="geometry" />
        </mxCell>
        <mxCell id="5-OogWlqRJuveZldEWBG-37" style="edgeStyle=none;shape=connector;rounded=0;orthogonalLoop=1;jettySize=auto;html=1;entryX=1;entryY=0.5;entryDx=0;entryDy=0;strokeColor=default;align=center;verticalAlign=middle;fontFamily=Helvetica;fontSize=11;fontColor=default;labelBackgroundColor=default;endArrow=open;endFill=0;" edge="1" parent="1" source="5-OogWlqRJuveZldEWBG-32" target="5-OogWlqRJuveZldEWBG-6">
          <mxGeometry relative="1" as="geometry" />
        </mxCell>
        <mxCell id="5-OogWlqRJuveZldEWBG-38" style="edgeStyle=none;shape=connector;rounded=0;orthogonalLoop=1;jettySize=auto;html=1;entryX=0.25;entryY=1;entryDx=0;entryDy=0;strokeColor=default;align=center;verticalAlign=middle;fontFamily=Helvetica;fontSize=11;fontColor=default;labelBackgroundColor=default;endArrow=block;endFill=0;exitX=0.25;exitY=0;exitDx=0;exitDy=0;" edge="1" parent="1" source="5-OogWlqRJuveZldEWBG-32" target="5-OogWlqRJuveZldEWBG-23">
          <mxGeometry relative="1" as="geometry" />
        </mxCell>
        <mxCell id="5-OogWlqRJuveZldEWBG-48" style="edgeStyle=none;shape=connector;rounded=0;orthogonalLoop=1;jettySize=auto;html=1;entryX=0;entryY=0.5;entryDx=0;entryDy=0;strokeColor=default;align=center;verticalAlign=middle;fontFamily=Helvetica;fontSize=11;fontColor=default;labelBackgroundColor=default;endArrow=open;endFill=0;dashed=1;" edge="1" parent="1" source="5-OogWlqRJuveZldEWBG-32" target="5-OogWlqRJuveZldEWBG-43">
          <mxGeometry relative="1" as="geometry" />
        </mxCell>
        <mxCell id="5-OogWlqRJuveZldEWBG-49" style="edgeStyle=none;shape=connector;rounded=0;orthogonalLoop=1;jettySize=auto;html=1;entryX=0;entryY=0.5;entryDx=0;entryDy=0;dashed=1;strokeColor=default;align=center;verticalAlign=middle;fontFamily=Helvetica;fontSize=11;fontColor=default;labelBackgroundColor=default;endArrow=open;endFill=0;" edge="1" parent="1" source="5-OogWlqRJuveZldEWBG-32" target="5-OogWlqRJuveZldEWBG-39">
          <mxGeometry relative="1" as="geometry" />
        </mxCell>
        <mxCell id="5-OogWlqRJuveZldEWBG-50" style="edgeStyle=none;shape=connector;rounded=0;orthogonalLoop=1;jettySize=auto;html=1;entryX=0;entryY=0.5;entryDx=0;entryDy=0;dashed=1;strokeColor=default;align=center;verticalAlign=middle;fontFamily=Helvetica;fontSize=11;fontColor=default;labelBackgroundColor=default;endArrow=open;endFill=0;" edge="1" parent="1" source="5-OogWlqRJuveZldEWBG-32" target="5-OogWlqRJuveZldEWBG-40">
          <mxGeometry relative="1" as="geometry" />
        </mxCell>
        <mxCell id="5-OogWlqRJuveZldEWBG-54" style="edgeStyle=none;shape=connector;rounded=0;orthogonalLoop=1;jettySize=auto;html=1;entryX=0;entryY=0.5;entryDx=0;entryDy=0;dashed=1;strokeColor=default;align=center;verticalAlign=middle;fontFamily=Helvetica;fontSize=11;fontColor=default;labelBackgroundColor=default;endArrow=open;endFill=0;" edge="1" parent="1" source="5-OogWlqRJuveZldEWBG-32" target="5-OogWlqRJuveZldEWBG-47">
          <mxGeometry relative="1" as="geometry" />
        </mxCell>
        <mxCell id="5-OogWlqRJuveZldEWBG-32" value="SellerScene" style="swimlane;fontStyle=1;align=center;verticalAlign=top;childLayout=stackLayout;horizontal=1;startSize=26;horizontalStack=0;resizeParent=1;resizeParentMax=0;resizeLast=0;collapsible=1;marginBottom=0;whiteSpace=wrap;html=1;fontFamily=Helvetica;fontSize=11;fontColor=default;labelBackgroundColor=default;" vertex="1" parent="1">
          <mxGeometry x="675" y="924" width="370" height="258" as="geometry" />
        </mxCell>
        <mxCell id="5-OogWlqRJuveZldEWBG-33" value="- scene: Scene&lt;div&gt;- bookCards: HashMap&amp;lt;Livre, CustomerBookCardComponent&amp;gt;&lt;br&gt;&lt;/div&gt;&lt;div&gt;- header: VBox&lt;br&gt;&lt;/div&gt;" style="text;strokeColor=none;fillColor=none;align=left;verticalAlign=top;spacingLeft=4;spacingRight=4;overflow=hidden;rotatable=0;points=[[0,0.5],[1,0.5]];portConstraint=eastwest;whiteSpace=wrap;html=1;fontFamily=Helvetica;fontSize=11;fontColor=default;labelBackgroundColor=default;" vertex="1" parent="5-OogWlqRJuveZldEWBG-32">
          <mxGeometry y="26" width="370" height="54" as="geometry" />
        </mxCell>
        <mxCell id="5-OogWlqRJuveZldEWBG-34" value="" style="line;strokeWidth=1;fillColor=none;align=left;verticalAlign=middle;spacingTop=-1;spacingLeft=3;spacingRight=3;rotatable=0;labelPosition=right;points=[];portConstraint=eastwest;strokeColor=inherit;fontFamily=Helvetica;fontSize=11;fontColor=default;labelBackgroundColor=default;" vertex="1" parent="5-OogWlqRJuveZldEWBG-32">
          <mxGeometry y="80" width="370" height="8" as="geometry" />
        </mxCell>
        <mxCell id="5-OogWlqRJuveZldEWBG-35" value="&lt;div&gt;+ SellerScene(app: AppIHM, modele: ChaineLibrairie)&lt;/div&gt;&lt;div&gt;+ getHeader(): HBox&lt;/div&gt;&lt;div&gt;+ showHome(): void&lt;/div&gt;&lt;div&gt;+ showAddBook(): void&lt;/div&gt;&lt;div&gt;+ showDeleteBook(listeLivres: List&amp;lt;Livre&amp;gt;): void&lt;/div&gt;&lt;div&gt;+ showTransfer(listeLivres: List&amp;lt;Livre&amp;gt;, magasin: Magasin): void&lt;/div&gt;&lt;div&gt;+ showListBooks(titre: String, listeLivres: List&amp;lt;Livre&amp;gt;): void&lt;/div&gt;&lt;div&gt;+ showStock(listeLivres: List&amp;lt;Livre&amp;gt;, magasin: Magasin): void&lt;/div&gt;&lt;div&gt;+ showViewAsCustomer(listeClients: List&amp;lt;Client&amp;gt;): void&lt;/div&gt;&lt;div&gt;+ createOrGetCardComponent(livre: Livre): SellerBookInfoCardComponent&lt;/div&gt;&lt;div&gt;+ getScene(): Scene&lt;/div&gt;" style="text;strokeColor=none;fillColor=none;align=left;verticalAlign=top;spacingLeft=4;spacingRight=4;overflow=hidden;rotatable=0;points=[[0,0.5],[1,0.5]];portConstraint=eastwest;whiteSpace=wrap;html=1;fontFamily=Helvetica;fontSize=11;fontColor=default;labelBackgroundColor=default;" vertex="1" parent="5-OogWlqRJuveZldEWBG-32">
          <mxGeometry y="88" width="370" height="170" as="geometry" />
        </mxCell>
        <mxCell id="5-OogWlqRJuveZldEWBG-39" value="SellerAddBookPane" style="html=1;whiteSpace=wrap;fontFamily=Helvetica;fontSize=11;fontColor=default;labelBackgroundColor=default;" vertex="1" parent="1">
          <mxGeometry x="1200" y="954" width="170" height="30" as="geometry" />
        </mxCell>
        <mxCell id="5-OogWlqRJuveZldEWBG-40" value="SellerDeleteBookListPane" style="html=1;whiteSpace=wrap;fontFamily=Helvetica;fontSize=11;fontColor=default;labelBackgroundColor=default;" vertex="1" parent="1">
          <mxGeometry x="1200" y="1014" width="170" height="30" as="geometry" />
        </mxCell>
        <mxCell id="5-OogWlqRJuveZldEWBG-42" value="SellerListBooksPane" style="html=1;whiteSpace=wrap;fontFamily=Helvetica;fontSize=11;fontColor=default;labelBackgroundColor=default;" vertex="1" parent="1">
          <mxGeometry x="1200" y="1074" width="170" height="30" as="geometry" />
        </mxCell>
        <mxCell id="5-OogWlqRJuveZldEWBG-43" value="SellerHomePane" style="html=1;whiteSpace=wrap;fontFamily=Helvetica;fontSize=11;fontColor=default;labelBackgroundColor=default;" vertex="1" parent="1">
          <mxGeometry x="1200" y="894" width="170" height="30" as="geometry" />
        </mxCell>
        <mxCell id="5-OogWlqRJuveZldEWBG-44" value="SellerMagasinStockPane" style="html=1;whiteSpace=wrap;fontFamily=Helvetica;fontSize=11;fontColor=default;labelBackgroundColor=default;" vertex="1" parent="1">
          <mxGeometry x="1200" y="1134" width="170" height="30" as="geometry" />
        </mxCell>
        <mxCell id="5-OogWlqRJuveZldEWBG-45" value="SellerTransferBookPane" style="html=1;whiteSpace=wrap;fontFamily=Helvetica;fontSize=11;fontColor=default;labelBackgroundColor=default;" vertex="1" parent="1">
          <mxGeometry x="1200" y="1194" width="170" height="30" as="geometry" />
        </mxCell>
        <mxCell id="5-OogWlqRJuveZldEWBG-47" value="SellerViewAsCustomerPane" style="html=1;whiteSpace=wrap;fontFamily=Helvetica;fontSize=11;fontColor=default;labelBackgroundColor=default;" vertex="1" parent="1">
          <mxGeometry x="1200" y="1254" width="170" height="30" as="geometry" />
        </mxCell>
        <mxCell id="5-OogWlqRJuveZldEWBG-51" style="edgeStyle=none;shape=connector;rounded=0;orthogonalLoop=1;jettySize=auto;html=1;entryX=0;entryY=0.5;entryDx=0;entryDy=0;dashed=1;strokeColor=default;align=center;verticalAlign=middle;fontFamily=Helvetica;fontSize=11;fontColor=default;labelBackgroundColor=default;endArrow=open;endFill=0;" edge="1" parent="1" source="5-OogWlqRJuveZldEWBG-35" target="5-OogWlqRJuveZldEWBG-42">
          <mxGeometry relative="1" as="geometry" />
        </mxCell>
        <mxCell id="5-OogWlqRJuveZldEWBG-52" style="edgeStyle=none;shape=connector;rounded=0;orthogonalLoop=1;jettySize=auto;html=1;entryX=0;entryY=0.5;entryDx=0;entryDy=0;dashed=1;strokeColor=default;align=center;verticalAlign=middle;fontFamily=Helvetica;fontSize=11;fontColor=default;labelBackgroundColor=default;endArrow=open;endFill=0;" edge="1" parent="1" source="5-OogWlqRJuveZldEWBG-35" target="5-OogWlqRJuveZldEWBG-44">
          <mxGeometry relative="1" as="geometry" />
        </mxCell>
        <mxCell id="5-OogWlqRJuveZldEWBG-53" style="edgeStyle=none;shape=connector;rounded=0;orthogonalLoop=1;jettySize=auto;html=1;entryX=0;entryY=0.5;entryDx=0;entryDy=0;dashed=1;strokeColor=default;align=center;verticalAlign=middle;fontFamily=Helvetica;fontSize=11;fontColor=default;labelBackgroundColor=default;endArrow=open;endFill=0;" edge="1" parent="1" source="5-OogWlqRJuveZldEWBG-35" target="5-OogWlqRJuveZldEWBG-45">
          <mxGeometry relative="1" as="geometry" />
        </mxCell>
        <mxCell id="5-OogWlqRJuveZldEWBG-55" value="CustomerListBooksPane" style="html=1;whiteSpace=wrap;fontFamily=Helvetica;fontSize=11;fontColor=default;labelBackgroundColor=default;" vertex="1" parent="1">
          <mxGeometry x="1200" y="630" width="170" height="30" as="geometry" />
        </mxCell>
        <mxCell id="5-OogWlqRJuveZldEWBG-56" value="CustomerPanierPane" style="html=1;whiteSpace=wrap;fontFamily=Helvetica;fontSize=11;fontColor=default;labelBackgroundColor=default;" vertex="1" parent="1">
          <mxGeometry x="1200" y="690" width="170" height="30" as="geometry" />
        </mxCell>
        <mxCell id="5-OogWlqRJuveZldEWBG-57" value="CustomerHomePane" style="html=1;whiteSpace=wrap;fontFamily=Helvetica;fontSize=11;fontColor=default;labelBackgroundColor=default;" vertex="1" parent="1">
          <mxGeometry x="1200" y="570" width="170" height="30" as="geometry" />
        </mxCell>
        <mxCell id="5-OogWlqRJuveZldEWBG-61" value="AdminDemandeInfoVendeurPane" style="html=1;whiteSpace=wrap;fontFamily=Helvetica;fontSize=11;fontColor=default;labelBackgroundColor=default;" vertex="1" parent="1">
          <mxGeometry x="1200" y="170" width="170" height="30" as="geometry" />
        </mxCell>
        <mxCell id="5-OogWlqRJuveZldEWBG-62" value="AdminFacturesPane" style="html=1;whiteSpace=wrap;fontFamily=Helvetica;fontSize=11;fontColor=default;labelBackgroundColor=default;" vertex="1" parent="1">
          <mxGeometry x="1200" y="230" width="170" height="30" as="geometry" />
        </mxCell>
        <mxCell id="5-OogWlqRJuveZldEWBG-63" value="AdminMagasinsPane" style="html=1;whiteSpace=wrap;fontFamily=Helvetica;fontSize=11;fontColor=default;labelBackgroundColor=default;" vertex="1" parent="1">
          <mxGeometry x="1200" y="290" width="170" height="30" as="geometry" />
        </mxCell>
        <mxCell id="5-OogWlqRJuveZldEWBG-64" value="AdminDemandeInfoMagasinPane" style="html=1;whiteSpace=wrap;fontFamily=Helvetica;fontSize=11;fontColor=default;labelBackgroundColor=default;" vertex="1" parent="1">
          <mxGeometry x="1200" y="110" width="170" height="30" as="geometry" />
        </mxCell>
        <mxCell id="5-OogWlqRJuveZldEWBG-65" value="AdminMagasinsStockPane" style="html=1;whiteSpace=wrap;fontFamily=Helvetica;fontSize=11;fontColor=default;labelBackgroundColor=default;" vertex="1" parent="1">
          <mxGeometry x="1200" y="350" width="170" height="30" as="geometry" />
        </mxCell>
        <mxCell id="5-OogWlqRJuveZldEWBG-66" value="AdminMagasinsVendeursPane" style="html=1;whiteSpace=wrap;fontFamily=Helvetica;fontSize=11;fontColor=default;labelBackgroundColor=default;" vertex="1" parent="1">
          <mxGeometry x="1200" y="410" width="170" height="30" as="geometry" />
        </mxCell>
        <mxCell id="5-OogWlqRJuveZldEWBG-67" value="AdminStatsPane" style="html=1;whiteSpace=wrap;fontFamily=Helvetica;fontSize=11;fontColor=default;labelBackgroundColor=default;" vertex="1" parent="1">
          <mxGeometry x="1200" y="470" width="170" height="30" as="geometry" />
        </mxCell>
        <mxCell id="5-OogWlqRJuveZldEWBG-79" style="edgeStyle=none;shape=connector;rounded=0;orthogonalLoop=1;jettySize=auto;html=1;entryX=1;entryY=0.5;entryDx=0;entryDy=0;strokeColor=default;align=center;verticalAlign=middle;fontFamily=Helvetica;fontSize=11;fontColor=default;labelBackgroundColor=default;endArrow=open;endFill=0;exitX=0.25;exitY=0;exitDx=0;exitDy=0;" edge="1" parent="1" source="5-OogWlqRJuveZldEWBG-75" target="5-OogWlqRJuveZldEWBG-8">
          <mxGeometry relative="1" as="geometry" />
        </mxCell>
        <mxCell id="5-OogWlqRJuveZldEWBG-75" value="ConnexionScene" style="swimlane;fontStyle=1;align=center;verticalAlign=top;childLayout=stackLayout;horizontal=1;startSize=26;horizontalStack=0;resizeParent=1;resizeParentMax=0;resizeLast=0;collapsible=1;marginBottom=0;whiteSpace=wrap;html=1;fontFamily=Helvetica;fontSize=11;fontColor=default;labelBackgroundColor=default;" vertex="1" parent="1">
          <mxGeometry x="660" y="1320" width="370" height="120" as="geometry" />
        </mxCell>
        <mxCell id="5-OogWlqRJuveZldEWBG-76" value="&lt;div&gt;- scene: Scene&lt;br&gt;&lt;/div&gt;" style="text;strokeColor=none;fillColor=none;align=left;verticalAlign=top;spacingLeft=4;spacingRight=4;overflow=hidden;rotatable=0;points=[[0,0.5],[1,0.5]];portConstraint=eastwest;whiteSpace=wrap;html=1;fontFamily=Helvetica;fontSize=11;fontColor=default;labelBackgroundColor=default;" vertex="1" parent="5-OogWlqRJuveZldEWBG-75">
          <mxGeometry y="26" width="370" height="24" as="geometry" />
        </mxCell>
        <mxCell id="5-OogWlqRJuveZldEWBG-77" value="" style="line;strokeWidth=1;fillColor=none;align=left;verticalAlign=middle;spacingTop=-1;spacingLeft=3;spacingRight=3;rotatable=0;labelPosition=right;points=[];portConstraint=eastwest;strokeColor=inherit;fontFamily=Helvetica;fontSize=11;fontColor=default;labelBackgroundColor=default;" vertex="1" parent="5-OogWlqRJuveZldEWBG-75">
          <mxGeometry y="50" width="370" height="8" as="geometry" />
        </mxCell>
        <mxCell id="5-OogWlqRJuveZldEWBG-78" value="&lt;div&gt;+ ConnexionView(app: AppIHM)&lt;/div&gt;&lt;div&gt;- getConnexionBox(): VBox&lt;/div&gt;&lt;div&gt;+ getScene(): Scene&lt;/div&gt;" style="text;strokeColor=none;fillColor=none;align=left;verticalAlign=top;spacingLeft=4;spacingRight=4;overflow=hidden;rotatable=0;points=[[0,0.5],[1,0.5]];portConstraint=eastwest;whiteSpace=wrap;html=1;fontFamily=Helvetica;fontSize=11;fontColor=default;labelBackgroundColor=default;" vertex="1" parent="5-OogWlqRJuveZldEWBG-75">
          <mxGeometry y="58" width="370" height="62" as="geometry" />
        </mxCell>
      </root>
    </mxGraphModel>
  </diagram>
</mxfile>
